<?xml version="1.0" standalone="no"?><!DOCTYPE svg PUBLIC "-//W3C//DTD SVG 1.1//EN" "http://www.w3.org/Graphics/SVG/1.1/DTD/svg11.dtd"><svg t="1699939502677" class="icon" viewBox="0 0 1024 1024" version="1.1" xmlns="http://www.w3.org/2000/svg" p-id="5046" xmlns:xlink="http://www.w3.org/1999/xlink" width="32" height="32"><path d="M256.393 227.87l-58.986 10.402v547.455l58.986 10.402 314.593 55.472L629.972 862V162l-58.986 10.397-314.593 55.473z m314.593 563.834l-314.593-55.472V287.768l314.593-55.472v559.408zM757.776 212.154h-98.31v58.986h98.31c5.328 0 9.831 4.503 9.831 9.831v462.058c0 5.328-4.503 9.831-9.831 9.831h-98.31v58.986h98.31c37.946 0 68.817-30.876 68.817-68.817V280.971c0-37.942-30.871-68.817-68.817-68.817z" fill="#2c2c2c" p-id="5047"></path><path d="M344.174 623.223l69.516-69.513 69.515 69.513 41.71-41.705L455.4 512l69.515-69.518-41.71-41.705-69.515 69.513-69.516-69.513-41.71 41.705L371.98 512l-69.516 69.518z" fill="#2c2c2c" p-id="5048"></path></svg>