<svg xmlns="http://www.w3.org/2000/svg" viewBox="0 0 78.34 40.01"><defs><style>.cls-1{fill:#231f20;}</style></defs><g id="Layer_2" data-name="Layer 2"><g id="Icons_black"><g id="iTRAK"><path class="cls-1" d="M10.76,19.77a1.24,1.24,0,0,0,.27,0,1,1,0,0,0,1-.73,5.4,5.4,0,0,1,1.6-2.77,1,1,0,0,0,.16-1.41,1,1,0,0,0-1.4-.16,7.35,7.35,0,0,0-2.29,3.81A1,1,0,0,0,10.76,19.77Z"/><path class="cls-1" d="M12.23,25.12a9.74,9.74,0,0,1-.59-3.4v0a1,1,0,0,0-1-1,1,1,0,0,0-1,1,11.47,11.47,0,0,0,.73,4.12,1,1,0,0,0,.93.64.92.92,0,0,0,.36-.07A1,1,0,0,0,12.23,25.12Z"/><path class="cls-1" d="M46.93,15.88h3.88a1,1,0,0,0,0-2H46.93a1,1,0,0,0,0,2Z"/><path class="cls-1" d="M14.66,29.56H16.6a1,1,0,0,0,0-2H14.66a1.73,1.73,0,0,1-1.12-.46,1,1,0,0,0-1.28,1.54,3.74,3.74,0,0,0,2.4.92Z"/><path class="cls-1" d="M29.3,13.88a1,1,0,0,0,0,2h3.87a1,1,0,0,0,0-2Z"/><path class="cls-1" d="M35.46,13.88a1,1,0,0,0,0,2h1.77a1,1,0,0,0,0-2Z"/><path class="cls-1" d="M21.51,14.88a1,1,0,0,0,1,1h3.88a1,1,0,0,0,0-2H22.51A1,1,0,0,0,21.51,14.88Z"/><path class="cls-1" d="M15.72,13.88a1,1,0,0,0,0,2H19.6a1,1,0,0,0,0-2Z"/><path class="cls-1" d="M40.14,13.88a1,1,0,0,0,0,2H44a1,1,0,0,0,0-2Z"/><path class="cls-1" d="M23.39,27.56H19.51a1,1,0,0,0,0,2h3.88a1,1,0,0,0,0-2Z"/><path class="cls-1" d="M63.78,25.65a1,1,0,0,0-1.36.36,2.59,2.59,0,0,1-2,1.55h-.18a1,1,0,0,0,0,2h.18A4.42,4.42,0,0,0,64.15,27,1,1,0,0,0,63.78,25.65Z"/><path class="cls-1" d="M50.54,27.56H46.66a1,1,0,0,0,0,2h3.88a1,1,0,0,0,0-2Z"/><path class="cls-1" d="M57.32,27.56H53.45a1,1,0,0,0,0,2h3.87a1,1,0,0,0,0-2Z"/><path class="cls-1" d="M43.75,27.56H39.87a1,1,0,0,0,0,2h3.88a1,1,0,0,0,0-2Z"/><path class="cls-1" d="M57.59,15.88a1,1,0,0,0,0-2H53.72a1,1,0,0,0,0,2Z"/><path class="cls-1" d="M30.18,27.56H26.3a1,1,0,0,0,0,2h3.88a1,1,0,0,0,0-2Z"/><path class="cls-1" d="M37,27.56H33.09a1,1,0,0,0,0,2H37a1,1,0,0,0,0-2Z"/><path class="cls-1" d="M64.14,18.94a1,1,0,0,0-.83,1.14,11.11,11.11,0,0,1,.12,1.64,9.6,9.6,0,0,1-.17,1.88,1,1,0,0,0,.81,1.17h.18a1,1,0,0,0,1-.81,12.81,12.81,0,0,0,.2-2.25,12.52,12.52,0,0,0-.15-1.95A1,1,0,0,0,64.14,18.94Z"/><path class="cls-1" d="M59.72,21.72a1,1,0,0,0-1-1H16a1,1,0,0,0,0,2H58.72A1,1,0,0,0,59.72,21.72Z"/><path class="cls-1" d="M22,10.35V4.42H14.26v5.84l3.84,2.8ZM16.26,6.42H20V9.31L18.13,10.6,16.26,9.25Z"/><path class="cls-1" d="M14.26,34.08V40H22V34.17l-3.84-2.8ZM20,38H16.26V35.12l1.84-1.29L20,35.19Z"/><path class="cls-1" d="M0,17.86v7.72H5.84l2.8-3.85L5.93,17.86Zm4.82,5.72H2V19.86H4.89l1.29,1.85Z"/><path class="cls-1" d="M25.78,12.63a1,1,0,0,0,.66-.26L30.3,8.94a2.26,2.26,0,0,1,1.51-.57H45.45a1,1,0,1,0,0-2H31.81A4.17,4.17,0,0,0,29,7.46l-3.84,3.42A1,1,0,0,0,25,12.29,1,1,0,0,0,25.78,12.63Z"/><path class="cls-1" d="M78.34,6c0-3.37-1.81-6-4.13-6H49.78A4.2,4.2,0,0,0,47,1.08L44.17,3.44A1,1,0,1,0,45.46,5l2.82-2.39A2.24,2.24,0,0,1,49.78,2H74.21c1,0,2.13,1.65,2.13,4,0,.28-.09,2.66-2.16,2.82a3.89,3.89,0,0,0-3.35-2.46H49.59a1,1,0,0,0,0,2H70.83c1,0,2.13,1.65,2.13,4s-1.12,4-2.13,4H64.12a4.51,4.51,0,0,0-3.58-2.52,1,1,0,0,0-1,1,1,1,0,0,0,1,1c.75,0,1.5.67,2.07,1.75a.7.7,0,0,0,.06.09,1,1,0,0,0,.94.68h7.3c2.32,0,4.13-2.65,4.13-6a9.28,9.28,0,0,0-.14-1.61,3.83,3.83,0,0,0,2.11-1.08A5.57,5.57,0,0,0,78.34,6Z"/></g></g></g></svg>