<?xml version="1.0" standalone="no"?><!DOCTYPE svg PUBLIC "-//W3C//DTD SVG 1.1//EN" "http://www.w3.org/Graphics/SVG/1.1/DTD/svg11.dtd"><svg t="1697678327443" class="icon" viewBox="0 0 1024 1024" version="1.1" xmlns="http://www.w3.org/2000/svg" p-id="17959" xmlns:xlink="http://www.w3.org/1999/xlink" width="32" height="32"><path d="M512.753778 790.058667c-109.553778 0-214.798222-26.688-304.284445-77.141334C121.066667 663.608889 55.153778 595.427556 17.770667 515.676444l-4.949334-10.424888 4.949334-10.424889C55.153778 415.075556 121.066667 346.901333 208.334222 297.585778 297.692444 247.132444 402.944 220.444444 512.618667 220.444444c109.546667 0 214.798222 26.688 304.284444 77.141334 87.537778 49.315556 153.443556 117.489778 190.826667 197.240889l4.949333 10.424889-4.949333 10.424888c-37.383111 79.751111-103.296 147.932444-190.563556 197.240889-89.486222 50.453333-194.737778 77.141333-304.412444 77.141334zM92.8 505.358222c69.425778 134.684444 237.980444 225.066667 419.953778 225.066667 181.973333 0 350.520889-90.382222 419.946666-225.066667-69.425778-134.684444-237.980444-225.073778-419.946666-225.073778-182.101333 0-350.791111 90.382222-419.953778 225.066667z" fill="#000000" p-id="17960"></path><path d="M512.753778 668.003556c-106.026667 0-192.284444-68.451556-192.284445-152.576s86.257778-152.576 192.284445-152.576c106.012444 0 192.284444 68.451556 192.284444 152.576s-86.272 152.576-192.284444 152.576z m0-243.953778c-63.559111 0-115.157333 41.052444-115.157334 91.377778 0 50.432 51.733333 91.377778 115.157334 91.377777 63.552 0 115.150222-41.052444 115.150222-91.377777 0-50.432-51.598222-91.377778-115.150222-91.377778z" fill="#000000" p-id="17961"></path></svg>