<?xml version="1.0" standalone="no"?><!DOCTYPE svg PUBLIC "-//W3C//DTD SVG 1.1//EN" "http://www.w3.org/Graphics/SVG/1.1/DTD/svg11.dtd"><svg t="1698289430527" class="icon" viewBox="0 0 1024 1024" version="1.1" xmlns="http://www.w3.org/2000/svg" p-id="4458" xmlns:xlink="http://www.w3.org/1999/xlink" width="32" height="32"><path d="M768 970.666667c-8.533333 0-14.933333-2.133333-21.333333-6.4l-236.8-130.133334-236.8 132.266667c-14.933333 8.533333-34.133333 6.4-46.933334-2.133333-14.933333-10.666667-21.333333-27.733333-19.2-44.8l44.8-281.6-194.133333-198.4c-12.8-12.8-17.066667-29.866667-10.666667-46.933334 6.4-17.066667 19.2-27.733333 36.266667-29.866666l264.533333-42.666667 119.466667-253.866667c6.4-14.933333 23.466667-25.6 40.533333-25.6s34.133333 10.666667 40.533334 25.6L669.866667 320l266.666666 40.533333c17.066667 2.133333 29.866667 14.933333 36.266667 29.866667 6.4 17.066667 2.133333 34.133333-10.666667 46.933333L768 635.733333 812.8 917.333333c2.133333 17.066667-4.266667 34.133333-19.2 44.8-8.533333 6.4-17.066667 8.533333-25.6 8.533334z m19.2-81.066667zM170.666667 433.066667l170.666666 174.933333-40.533333 243.2 206.933333-115.2 206.933334 115.2-40.533334-243.2 170.666667-174.933333-234.666667-36.266667-102.4-217.6L405.333333 398.933333 170.666667 433.066667z m729.6-53.333334z m-782.933334-2.133333c0 2.133333 0 0 0 0z m426.666667-275.2z m-72.533333 0z" p-id="4459"></path></svg>