<?xml version="1.0" standalone="no"?><!DOCTYPE svg PUBLIC "-//W3C//DTD SVG 1.1//EN" "http://www.w3.org/Graphics/SVG/1.1/DTD/svg11.dtd"><svg t="1697678356807" class="icon" viewBox="0 0 1024 1024" version="1.1" xmlns="http://www.w3.org/2000/svg" p-id="19975" xmlns:xlink="http://www.w3.org/1999/xlink" width="32" height="32"><path d="M907.3 333.5c-14.1-21.8-33.4-39.7-56.1-52.2l-50-113.7H222.9l-50 113.7c-22.7 12.4-42 30.3-56.1 52.2-16.2 25-24.7 54.1-24.7 84s8.6 59 24.7 84c13 20.1 30.4 36.9 50.9 49.1v305.8h688.8V550.6c20.4-12.2 37.9-29 50.9-49.1 16.2-25 24.7-54.1 24.7-84-0.1-29.9-8.7-59-24.8-84z m-96.9 476.9H213.6V569.1c11 2.5 22.3 3.7 33.7 3.7 55.9 0 105-29.7 132.3-74.1 27.4 44.4 76.4 74.1 132.3 74.1 55.9 0 105-29.7 132.3-74.1 27.4 44.4 76.4 74.1 132.3 74.1 1.4 0 2.9 0 4.3-0.1 0.5 0 0.9 0 1.4-0.1 1 0 1.9-0.1 2.9-0.1 0.6 0 1.1-0.1 1.7-0.1 0.8-0.1 1.7-0.1 2.5-0.2 0.6-0.1 1.2-0.1 1.9-0.2 0.8-0.1 1.6-0.1 2.4-0.2 0.6-0.1 1.3-0.2 1.9-0.2 0.8-0.1 1.5-0.2 2.3-0.3 0.7-0.1 1.3-0.2 2-0.3 0.7-0.1 1.5-0.2 2.2-0.3 0.7-0.1 1.3-0.2 2-0.4 0.7-0.1 1.5-0.3 2.2-0.4 0.6-0.1 1.3-0.3 1.9-0.4 0.7-0.1 1.4-0.3 2.1-0.4v241.3z m13.1-294.3c-14.9 7.1-30.6 10.7-46.8 10.7-60.3 0-109.3-49-109.3-109.3h-46c0 60.3-49 109.3-109.3 109.3s-109.3-49-109.3-109.3h-46c0 60.3-49 109.3-109.3 109.3-16.2 0-31.9-3.6-46.8-10.7-38-18.1-62.5-56.8-62.5-98.7 0-41.9 24.5-80.6 62.5-98.7l7.7-3.7 44.7-101.5h518.2L816 315l7.7 3.7c38 18.1 62.5 56.8 62.5 98.7-0.2 41.9-24.7 80.7-62.7 98.7z" p-id="19976"></path><path d="M313.5 290.5h397v46h-397z" p-id="19977"></path></svg>