<?xml version="1.0" standalone="no"?><!DOCTYPE svg PUBLIC "-//W3C//DTD SVG 1.1//EN" "http://www.w3.org/Graphics/SVG/1.1/DTD/svg11.dtd"><svg t="1698204479153" class="icon" viewBox="0 0 1077 1024" version="1.1" xmlns="http://www.w3.org/2000/svg" p-id="12627" xmlns:xlink="http://www.w3.org/1999/xlink" width="33.65625" height="32"><path d="M143.737263 89.842526c-36.378947 0-65.913263 29.480421-65.913263 65.859369v724.560842c0 36.378947 29.534316 65.913263 65.913263 65.913263h790.420211c36.378947 0 65.913263-29.534316 65.913263-65.913263V155.755789c0-36.378947-29.534316-65.859368-65.913263-65.859368H143.737263z m0-65.913263h790.420211a131.718737 131.718737 0 0 1 131.772631 131.772632v724.560842a131.718737 131.718737 0 0 1-131.772631 131.772631H143.737263a131.718737 131.718737 0 0 1-131.772631-131.772631V155.755789A131.718737 131.718737 0 0 1 143.737263 23.929263z" fill="#333333" p-id="12628"></path><path d="M11.964632 287.420632h1053.965473v65.913263H11.964632zM565.840842 449.428211a32.929684 32.929684 0 1 1 60.362105 26.246736l-145.515789 334.794106a32.929684 32.929684 0 1 1-60.362105-26.300632l145.515789-334.74021z m231.208421 301.163789a19.779368 19.779368 0 0 1-27.863579 0l-18.647579-18.647579a19.779368 19.779368 0 0 1 0-27.917474l65.212632-65.212631a19.779368 19.779368 0 0 0 0-27.971369l-65.212632-65.212631a19.779368 19.779368 0 0 1 0-27.917474l18.647579-18.647579a19.779368 19.779368 0 0 1 27.917474 0l111.777684 111.777684a19.779368 19.779368 0 0 1 0 27.971369l-111.777684 111.777684z m-516.257684 0L169.013895 638.652632a19.779368 19.779368 0 0 1 0-27.917474L280.791579 499.065263a19.779368 19.779368 0 0 1 27.917474 0l18.647579 18.647579a19.779368 19.779368 0 0 1 0 27.917474l-65.212632 65.212631a19.779368 19.779368 0 0 0 0 27.917474l65.212632 65.212632a19.779368 19.779368 0 0 1 0 27.971368l-18.647579 18.647579a19.779368 19.779368 0 0 1-27.917474 0z" fill="#333333" p-id="12629"></path></svg>