<?xml version="1.0" standalone="no"?><!DOCTYPE svg PUBLIC "-//W3C//DTD SVG 1.1//EN" "http://www.w3.org/Graphics/SVG/1.1/DTD/svg11.dtd"><svg t="1697676286156" class="icon" viewBox="0 0 1024 1024" version="1.1" xmlns="http://www.w3.org/2000/svg" p-id="15918" xmlns:xlink="http://www.w3.org/1999/xlink" width="32" height="32"><path d="M93.090909 0h93.090909v1024H93.090909z" fill="#31394C" p-id="15919"></path><path d="M139.636364 311.854545m-139.636364 0a139.636364 139.636364 0 1 0 279.272727 0 139.636364 139.636364 0 1 0-279.272727 0Z" fill="#31394C" p-id="15920"></path><path d="M465.454545 0h93.09091v1024h-93.09091z" fill="#31394C" p-id="15921"></path><path d="M512 721.454545m-139.636364 0a139.636364 139.636364 0 1 0 279.272728 0 139.636364 139.636364 0 1 0-279.272728 0Z" fill="#31394C" p-id="15922"></path><path d="M837.818182 0h93.090909v1024h-93.090909z" fill="#31394C" p-id="15923"></path><path d="M884.363636 311.854545m-139.636363 0a139.636364 139.636364 0 1 0 279.272727 0 139.636364 139.636364 0 1 0-279.272727 0Z" fill="#31394C" p-id="15924"></path></svg>