<?xml version="1.0" standalone="no"?><!DOCTYPE svg PUBLIC "-//W3C//DTD SVG 1.1//EN" "http://www.w3.org/Graphics/SVG/1.1/DTD/svg11.dtd"><svg t="1695346245059" class="icon" viewBox="0 0 1024 1024" version="1.1" xmlns="http://www.w3.org/2000/svg" p-id="12873" xmlns:xlink="http://www.w3.org/1999/xlink" width="32" height="32"><path d="M868.09 688.74c-67.81-61.03-162.78-54.24-223.84 6.79L413.66 559.9c6.75-27.12 6.75-61.03 0-94.93l230.59-135.63c40.66 40.7 101.72 61.03 162.78 40.7 81.32-27.12 128.87-115.26 101.72-196.65C881.6 91.99 793.39 44.54 712.06 71.66S583.19 186.93 610.34 268.32L379.75 403.94l-6.75-6.79c-67.81-61.03-162.78-54.24-223.84 6.79-61.06 67.81-54.3 162.75 6.75 223.77 67.81 61.03 162.78 54.24 223.84-6.79l230.59 135.63c-6.75 13.58-6.75 33.91-6.75 47.48 0 88.15 67.81 155.96 156.03 155.96 47.55 0 88.21-20.36 115.23-47.48 61.05-67.81 54.3-162.74-6.76-223.77zM761.07 129.18c50.88 0 92.12 41.24 92.12 92.12s-41.24 92.12-92.12 92.12-92.12-41.24-92.12-92.12 41.24-92.12 92.12-92.12zM257.9 604.24c-50.88 0-92.12-41.24-92.12-92.12S207.02 420 257.9 420s92.12 41.24 92.12 92.12-41.25 92.12-92.12 92.12z m503.17 291.02c-50.88 0-92.12-41.24-92.12-92.12s41.24-92.12 92.12-92.12 92.12 41.24 92.12 92.12-41.25 92.12-92.12 92.12z" p-id="12874"></path></svg>