<?xml version="1.0" standalone="no"?><!DOCTYPE svg PUBLIC "-//W3C//DTD SVG 1.1//EN" "http://www.w3.org/Graphics/SVG/1.1/DTD/svg11.dtd"><svg t="1695346002920" class="icon" viewBox="0 0 1024 1024" version="1.1" xmlns="http://www.w3.org/2000/svg" p-id="8138" xmlns:xlink="http://www.w3.org/1999/xlink" width="32" height="32"><path d="M885.333333 853.333333H170.666667V384h714.666666c17.066667 0 32-14.933333 32-32s-14.933333-32-32-32H170.666667V170.666667h682.666666v714.666666c0 17.066667 14.933333 32 32 32s32-14.933333 32-32V149.333333c0-23.466667-19.2-42.666667-42.666666-42.666666H149.333333c-23.466667 0-42.666667 19.2-42.666666 42.666666v725.333334c0 23.466667 19.2 42.666667 42.666666 42.666666h736c17.066667 0 32-14.933333 32-32s-14.933333-32-32-32z" p-id="8139"></path><path d="M565.333333 213.333333c-17.066667 0-32 14.933333-32 32s14.933333 32 32 32h21.333334c17.066667 0 32-14.933333 32-32s-14.933333-32-32-32h-21.333334zM416 213.333333c-17.066667 0-32 14.933333-32 32s14.933333 32 32 32h21.333333c17.066667 0 32-14.933333 32-32s-14.933333-32-32-32h-21.333333zM266.666667 213.333333c-17.066667 0-32 14.933333-32 32s14.933333 32 32 32h21.333333c17.066667 0 32-14.933333 32-32s-14.933333-32-32-32h-21.333333zM469.333333 595.2c12.8 12.8 12.8 32 0 44.8l-104.533333 106.666667c-12.8 12.8-32 12.8-44.8 0-12.8-12.8-12.8-32 0-44.8l104.533333-104.533334c12.8-12.8 32-12.8 44.8-2.133333z" p-id="8140"></path><path d="M469.333333 642.133333c-12.8 12.8-32 12.8-44.8 0L320 537.6c-12.8-12.8-12.8-32 0-44.8 12.8-12.8 32-12.8 44.8 0L469.333333 597.333333c12.8 10.666667 12.8 32 0 44.8zM629.333333 682.666667h-106.666666c-17.066667 0-32 14.933333-32 32s14.933333 32 32 32h106.666666c17.066667 0 32-14.933333 32-32s-14.933333-32-32-32z" p-id="8141"></path></svg>